<?xml version="1.0" encoding="utf-8"?>
<!-- Generator: Adobe Illustrator 24.1.2, SVG Export Plug-In . SVG Version: 6.00 Build 0)  -->
<svg version="1.1" id="Layer_1" xmlns="http://www.w3.org/2000/svg" xmlns:xlink="http://www.w3.org/1999/xlink" x="0px" y="0px"
	 viewBox="0 0 785.5 268.7" style="enable-background:new 0 0 785.5 268.7;" xml:space="preserve">
<style type="text/css">
	.st0{display:none;fill:#28497C;}
	.st1{fill:#FFFFFF;}
	.st2{fill:#AE0A0D;}
</style>
<rect x="0" class="st0" width="785.5" height="268.2"/>
<g>
	<path class="st1" d="M732.4,85.1c0-17.6-14.3-32-32-32c-17.7,0-31.9,14.3-31.9,32s14.3,32,31.9,32
		C718.1,117.1,732.4,102.7,732.4,85.1 M700.4,0c-47,0-85.1,38.1-85.1,85.1h25.3c0-33,26.8-59.7,59.7-59.7c33,0,59.8,26.8,59.8,59.8
		c0,33-26.8,59.8-59.8,59.8v25.3c47,0,85.1-38.1,85.1-85.1S747.4,0,700.4,0"/>
	<path class="st2" d="M456.2,236h30.6v30.6h-30.6L456.2,236z"/>
	<g>
		<path class="st1" d="M20.2,222.3c11,9.5,25.2,16.2,38.1,16.2c14.5,0,21.7-5.7,21.7-15c0-9.8-8.8-12.9-22.4-18.6l-20-8.6
			C21.4,189.9,6.2,176.6,6.2,154c0-25.7,23.1-46.2,55.2-46.2c17.9,0,36.7,7.1,50,20.5l-17.6,22.1c-10.2-7.9-20-12.4-32.4-12.4
			c-11.9,0-19.8,5.2-19.8,14c0,9.5,10.2,12.9,23.8,18.3l19.8,8.1c18.8,7.6,30.7,20.2,30.7,42.1c0,25.7-21.4,48.1-58.3,48.1
			c-20.2,0-41.7-7.6-57.6-22.4C0,246.3,20.2,222.3,20.2,222.3z"/>
		<path class="st1" d="M152.6,168.8h-33v-27.6h99v27.6h-33v97h-33L152.6,168.8L152.6,168.8z"/>
		<path class="st1" d="M230.4,141.2h33v68.3c0,22.2,5.8,30.3,18.8,30.3s19.2-8.1,19.2-30.3v-68.3h31.8v64.4
			c0,42.6-16.1,62.5-51,62.5s-51.8-19.9-51.8-62.5L230.4,141.2L230.4,141.2z"/>
		<path class="st1" d="M501.8,110.6H537v155.2h-35.2V110.6L501.8,110.6z"/>
		<path class="st1" d="M553.7,110.6h45.9c47.3,0,79.8,22,79.8,76.9c0,54.9-32.5,78.3-77.4,78.3h-48.2V110.6L553.7,110.6z
			 M597.1,232.9c22.4,0,40.1-9.1,40.1-45.4s-17.7-43.9-40.1-43.9h-2.4v89.3H597.1z"/>
		<path class="st1" d="M348.4,141.2h45.5c27.1,0,48.8,9.9,48.8,40.1c0,29.3-22.4,42.2-48.8,42.2h-17.2v42.3h-28.3V141.2L348.4,141.2
			z M392.1,201.2c15.5,0,22.9-6.9,22.9-19.9c0-13-8-17.8-22.9-17.8h-15.5v37.7H392.1z"/>
	</g>
</g>
</svg>
